<?xml version="1.0" encoding="UTF-8"?>
<svg xmlns="http://www.w3.org/2000/svg" xmlns:xlink="http://www.w3.org/1999/xlink" width="255px" height="256px" viewBox="0 0 255 265" version="1.1">
<defs>
<linearGradient id="linear0" gradientUnits="userSpaceOnUse" x1="175.5" y1="109.500004" x2="175.5" y2="361.350003" gradientTransform="matrix(0.726496,0,0,0.726027,0,0)">
<stop offset="0" style="stop-color:rgb(94.117647%,35.294118%,15.686275%);stop-opacity:1;"/>
<stop offset="1" style="stop-color:rgb(98.431373%,79.215686%,3.921569%);stop-opacity:1;"/>
</linearGradient>
</defs>
<g id="surface1">
<path style=" stroke:none;fill-rule:nonzero;fill:url(#linear0);" d="M 248.460938 117.035156 C 248.027344 112.605469 247.300781 107.523438 245.847656 101.863281 C 244.394531 96.269531 242.214844 90.101562 239.015625 83.710938 C 235.820312 77.320312 231.679688 70.714844 226.304688 64.253906 C 224.195312 61.710938 221.871094 59.242188 219.402344 56.847656 C 223.105469 42.109375 214.898438 29.332031 214.898438 29.332031 C 200.730469 28.460938 191.722656 33.761719 188.378906 36.15625 C 187.800781 35.9375 187.289062 35.648438 186.710938 35.429688 C 184.3125 34.484375 181.84375 33.542969 179.226562 32.742188 C 176.683594 31.945312 174.070312 31.21875 171.378906 30.566406 C 168.691406 29.914062 166.003906 29.402344 163.242188 28.96875 C 162.734375 28.894531 162.300781 28.824219 161.789062 28.75 C 155.617188 9.003906 137.890625 0.726562 137.890625 0.726562 C 118.054688 13.285156 114.351562 30.855469 114.351562 30.855469 C 114.351562 30.855469 114.277344 31.21875 114.132812 31.871094 C 113.042969 32.164062 111.953125 32.527344 110.863281 32.816406 C 109.335938 33.253906 107.8125 33.832031 106.359375 34.414062 C 104.832031 34.996094 103.378906 35.574219 101.855469 36.230469 C 98.875 37.535156 95.898438 38.988281 92.992188 40.585938 C 90.15625 42.183594 87.398438 43.925781 84.710938 45.738281 C 84.347656 45.59375 83.984375 45.449219 83.984375 45.449219 C 56.519531 34.996094 32.183594 47.554688 32.183594 47.554688 C 29.929688 76.742188 43.152344 95.109375 45.769531 98.449219 C 45.117188 100.265625 44.535156 102.078125 43.953125 103.894531 C 41.917969 110.5 40.394531 117.253906 39.449219 124.296875 C 39.304688 125.3125 39.15625 126.328125 39.085938 127.34375 C 13.65625 139.90625 6.175781 165.535156 6.175781 165.535156 C 27.316406 189.855469 52.015625 191.378906 52.015625 191.378906 C 52.015625 191.378906 52.089844 191.308594 52.089844 191.308594 C 55.214844 196.898438 58.847656 202.199219 62.914062 207.207031 C 64.65625 209.3125 66.402344 211.273438 68.289062 213.234375 C 60.589844 235.304688 69.378906 253.601562 69.378906 253.601562 C 92.917969 254.472656 108.394531 243.292969 111.664062 240.75 C 113.988281 241.550781 116.382812 242.273438 118.78125 242.855469 C 126.046875 244.742188 133.457031 245.832031 140.867188 246.125 C 142.683594 246.195312 144.574219 246.269531 146.390625 246.195312 L 149.003906 246.195312 L 150.167969 246.125 L 150.167969 246.195312 C 161.28125 262.023438 180.753906 264.273438 180.753906 264.273438 C 194.628906 249.679688 195.425781 235.160156 195.425781 232.039062 C 195.425781 232.039062 195.425781 231.964844 195.425781 231.820312 C 195.425781 231.53125 195.425781 231.386719 195.425781 231.386719 C 195.425781 231.167969 195.425781 230.949219 195.425781 230.730469 C 198.332031 228.699219 201.09375 226.519531 203.710938 224.125 C 209.230469 219.113281 214.097656 213.378906 218.167969 207.207031 C 218.53125 206.628906 218.894531 206.046875 219.257812 205.464844 C 234.949219 206.335938 246.0625 195.738281 246.0625 195.738281 C 243.449219 179.402344 234.148438 171.414062 232.1875 169.890625 C 232.1875 169.890625 232.117188 169.816406 231.96875 169.746094 C 231.824219 169.671875 231.824219 169.601562 231.824219 169.601562 C 231.753906 169.527344 231.605469 169.453125 231.460938 169.382812 C 231.535156 168.367188 231.605469 167.421875 231.679688 166.40625 C 231.824219 164.664062 231.824219 162.847656 231.824219 161.105469 L 231.824219 158.78125 C 231.824219 158.347656 231.824219 158.492188 231.824219 158.347656 L 231.753906 157.257812 L 231.679688 155.804688 C 231.679688 155.296875 231.605469 154.863281 231.535156 154.425781 C 231.460938 153.992188 231.460938 153.480469 231.390625 153.046875 L 231.242188 151.667969 L 231.027344 150.289062 C 230.734375 148.472656 230.445312 146.730469 230.007812 144.914062 C 228.335938 137.871094 225.578125 131.191406 222.015625 125.167969 C 218.382812 119.140625 213.878906 113.839844 208.722656 109.339844 C 203.636719 104.839844 197.898438 101.207031 191.941406 98.523438 C 185.910156 95.835938 179.664062 94.09375 173.414062 93.292969 C 170.289062 92.859375 167.167969 92.714844 164.042969 92.785156 L 162.589844 92.785156 C 162.515625 92.785156 162.152344 92.785156 162.226562 92.785156 L 161.71875 92.785156 L 160.554688 92.859375 C 160.121094 92.859375 159.683594 92.929688 159.320312 92.929688 C 157.722656 93.078125 156.125 93.292969 154.597656 93.585938 C 148.351562 94.746094 142.464844 96.996094 137.308594 100.121094 C 132.148438 103.242188 127.644531 107.089844 124.011719 111.445312 C 120.378906 115.800781 117.546875 120.664062 115.585938 125.675781 C 113.625 130.683594 112.535156 135.914062 112.242188 140.921875 C 112.171875 142.15625 112.171875 143.464844 112.171875 144.695312 C 112.171875 144.988281 112.171875 145.351562 112.171875 145.640625 L 112.242188 146.65625 C 112.316406 147.238281 112.316406 147.890625 112.390625 148.472656 C 112.605469 151.015625 113.117188 153.480469 113.769531 155.804688 C 115.148438 160.523438 117.328125 164.808594 120.015625 168.4375 C 122.707031 172.070312 125.972656 175.046875 129.390625 177.441406 C 132.804688 179.765625 136.507812 181.433594 140.140625 182.523438 C 143.773438 183.613281 147.40625 184.046875 150.820312 184.046875 C 151.257812 184.046875 151.691406 184.046875 152.054688 184.046875 C 152.273438 184.046875 152.492188 184.046875 152.710938 184.046875 C 152.925781 184.046875 153.144531 184.046875 153.363281 183.976562 C 153.726562 183.976562 154.089844 183.902344 154.453125 183.902344 C 154.527344 183.902344 154.671875 183.902344 154.742188 183.832031 L 155.105469 183.757812 C 155.324219 183.757812 155.542969 183.683594 155.761719 183.683594 C 156.195312 183.613281 156.558594 183.539062 156.996094 183.46875 C 157.429688 183.394531 157.792969 183.320312 158.15625 183.175781 C 158.957031 183.03125 159.683594 182.742188 160.410156 182.523438 C 161.863281 182.015625 163.316406 181.433594 164.550781 180.78125 C 165.859375 180.128906 167.019531 179.328125 168.183594 178.601562 C 168.472656 178.386719 168.835938 178.167969 169.128906 177.875 C 170.289062 176.933594 170.507812 175.191406 169.5625 174.027344 C 168.765625 173.011719 167.3125 172.722656 166.148438 173.375 C 165.859375 173.519531 165.570312 173.664062 165.277344 173.8125 C 164.261719 174.320312 163.242188 174.753906 162.152344 175.117188 C 161.0625 175.480469 159.902344 175.769531 158.738281 175.988281 C 158.15625 176.0625 157.578125 176.132812 156.921875 176.207031 C 156.632812 176.207031 156.34375 176.28125 155.980469 176.28125 C 155.6875 176.28125 155.324219 176.28125 155.105469 176.28125 C 154.816406 176.28125 154.527344 176.28125 154.234375 176.28125 C 153.871094 176.28125 153.507812 176.28125 153.144531 176.207031 C 153.144531 176.207031 152.925781 176.207031 153.074219 176.207031 L 152.710938 176.207031 C 152.5625 176.207031 152.347656 176.207031 152.199219 176.132812 C 151.835938 176.0625 151.546875 176.0625 151.183594 175.988281 C 148.496094 175.625 145.808594 174.828125 143.265625 173.664062 C 140.648438 172.503906 138.179688 170.90625 135.925781 168.875 C 133.675781 166.839844 131.714844 164.445312 130.1875 161.6875 C 128.664062 158.925781 127.574219 155.878906 127.0625 152.683594 C 126.847656 151.085938 126.699219 149.417969 126.773438 147.820312 C 126.773438 147.382812 126.847656 146.949219 126.847656 146.511719 C 126.847656 146.65625 126.847656 146.441406 126.847656 146.441406 L 126.847656 145.929688 C 126.847656 145.714844 126.917969 145.496094 126.917969 145.277344 C 126.992188 144.40625 127.136719 143.535156 127.28125 142.664062 C 128.515625 135.695312 132.003906 128.871094 137.378906 123.714844 C 138.761719 122.410156 140.214844 121.246094 141.738281 120.15625 C 143.265625 119.070312 144.9375 118.125 146.679688 117.324219 C 148.421875 116.527344 150.167969 115.875 152.054688 115.367188 C 153.871094 114.859375 155.761719 114.566406 157.722656 114.347656 C 158.667969 114.277344 159.609375 114.203125 160.628906 114.203125 C 160.917969 114.203125 161.0625 114.203125 161.28125 114.203125 L 162.589844 114.203125 C 162.808594 114.203125 162.589844 114.203125 162.664062 114.203125 L 162.878906 114.203125 L 163.679688 114.277344 C 165.785156 114.421875 167.820312 114.710938 169.855469 115.21875 C 173.921875 116.089844 177.917969 117.617188 181.625 119.648438 C 189.035156 123.789062 195.355469 130.175781 199.207031 137.871094 C 201.167969 141.71875 202.546875 145.859375 203.199219 150.140625 C 203.347656 151.230469 203.492188 152.320312 203.5625 153.410156 L 203.636719 154.207031 L 203.710938 155.007812 C 203.710938 155.296875 203.710938 155.585938 203.710938 155.804688 C 203.710938 156.097656 203.710938 156.386719 203.710938 156.605469 L 203.710938 158.128906 C 203.710938 158.636719 203.636719 159.507812 203.636719 160.015625 C 203.5625 161.179688 203.417969 162.414062 203.273438 163.574219 C 203.128906 164.734375 202.910156 165.898438 202.691406 167.058594 C 202.472656 168.21875 202.183594 169.382812 201.894531 170.472656 C 201.3125 172.722656 200.585938 174.972656 199.714844 177.222656 C 197.96875 181.578125 195.644531 185.789062 192.882812 189.636719 C 187.289062 197.335938 179.664062 203.578125 170.945312 207.570312 C 166.585938 209.53125 162.007812 210.984375 157.285156 211.710938 C 154.960938 212.144531 152.5625 212.363281 150.167969 212.4375 L 146.824219 212.4375 C 147.117188 212.4375 146.753906 212.4375 146.753906 212.4375 L 146.535156 212.4375 C 145.226562 212.4375 143.992188 212.363281 142.683594 212.21875 C 137.597656 211.855469 132.585938 210.910156 127.644531 209.53125 C 122.777344 208.152344 118.054688 206.191406 113.550781 203.867188 C 104.617188 199.078125 96.550781 192.542969 90.304688 184.628906 C 87.179688 180.707031 84.417969 176.425781 82.167969 171.996094 C 79.914062 167.566406 78.097656 162.847656 76.789062 158.128906 C 75.484375 153.335938 74.683594 148.472656 74.320312 143.535156 L 74.246094 142.589844 L 74.246094 138.453125 C 74.246094 138.453125 74.246094 138.527344 74.246094 138.378906 L 74.246094 137.945312 C 74.246094 137.363281 74.246094 136.710938 74.246094 136.128906 C 74.320312 133.734375 74.539062 131.191406 74.828125 128.726562 C 75.121094 126.257812 75.554688 123.714844 76.0625 121.246094 C 76.574219 118.777344 77.152344 116.308594 77.878906 113.839844 C 79.261719 108.976562 81.003906 104.257812 83.039062 99.828125 C 87.179688 90.972656 92.554688 83.058594 99.019531 76.742188 C 100.621094 75.144531 102.289062 73.691406 104.035156 72.238281 C 105.777344 70.859375 107.59375 69.554688 109.484375 68.320312 C 111.300781 67.085938 113.261719 65.996094 115.222656 64.980469 C 116.167969 64.472656 117.183594 63.964844 118.199219 63.527344 C 118.710938 63.308594 119.21875 63.089844 119.726562 62.875 C 120.234375 62.65625 120.742188 62.4375 121.253906 62.21875 C 123.285156 61.347656 125.394531 60.625 127.574219 59.96875 C 128.082031 59.824219 128.664062 59.679688 129.171875 59.460938 C 129.679688 59.316406 130.261719 59.171875 130.769531 59.027344 C 131.859375 58.734375 132.949219 58.445312 134.039062 58.226562 C 134.546875 58.082031 135.128906 58.007812 135.710938 57.863281 C 136.289062 57.71875 136.800781 57.648438 137.378906 57.5 C 137.960938 57.429688 138.46875 57.285156 139.050781 57.210938 L 139.851562 57.066406 L 140.722656 56.921875 C 141.304688 56.847656 141.8125 56.773438 142.394531 56.703125 C 143.046875 56.628906 143.628906 56.558594 144.28125 56.484375 C 144.789062 56.414062 145.664062 56.339844 146.171875 56.265625 C 146.535156 56.195312 146.96875 56.195312 147.332031 56.121094 L 148.132812 56.050781 L 148.496094 55.976562 L 148.929688 55.976562 C 149.585938 55.902344 150.167969 55.902344 150.820312 55.832031 L 151.765625 55.757812 C 151.765625 55.757812 152.128906 55.757812 151.835938 55.757812 L 152.492188 55.757812 C 153 55.757812 153.582031 55.6875 154.089844 55.6875 C 156.195312 55.613281 158.375 55.613281 160.484375 55.6875 C 164.695312 55.832031 168.835938 56.339844 172.832031 57.066406 C 180.898438 58.589844 188.453125 61.132812 195.355469 64.542969 C 202.257812 67.882812 208.359375 72.023438 213.734375 76.523438 C 214.097656 76.8125 214.390625 77.105469 214.753906 77.394531 C 215.042969 77.683594 215.40625 77.976562 215.695312 78.265625 C 216.351562 78.847656 216.929688 79.425781 217.585938 80.007812 C 218.238281 80.589844 218.820312 81.167969 219.402344 81.75 C 219.984375 82.332031 220.5625 82.914062 221.144531 83.566406 C 223.398438 85.960938 225.503906 88.359375 227.394531 90.824219 C 231.171875 95.691406 234.222656 100.628906 236.621094 105.273438 C 236.765625 105.5625 236.910156 105.855469 237.054688 106.144531 C 237.199219 106.4375 237.347656 106.726562 237.492188 107.015625 C 237.78125 107.597656 238.074219 108.179688 238.289062 108.757812 C 238.582031 109.339844 238.800781 109.847656 239.089844 110.429688 C 239.308594 111.007812 239.597656 111.519531 239.816406 112.097656 C 240.6875 114.277344 241.558594 116.382812 242.214844 118.34375 C 243.304688 121.535156 244.101562 124.367188 244.757812 126.835938 C 244.972656 127.851562 245.917969 128.507812 246.9375 128.363281 C 248.027344 128.289062 248.824219 127.417969 248.824219 126.328125 C 248.898438 123.714844 248.824219 120.59375 248.460938 117.035156 Z M 248.460938 117.035156 "/>
</g>
</svg>
