<?xml version="1.0" encoding="UTF-8"?>
<svg xmlns="http://www.w3.org/2000/svg" xmlns:xlink="http://www.w3.org/1999/xlink" width="255px" height="256px" viewBox="0 0 255 255" version="1.1">
<g id="surface1">
<path style=" stroke:none;fill-rule:nonzero;fill:rgb(85.490197%,30.588236%,19.215687%);fill-opacity:1;" d="M 127.5 0.660156 C 57.085938 0.660156 0 57.519531 0 127.664062 C 0 197.800781 57.085938 254.664062 127.5 254.664062 C 197.914062 254.664062 255 197.800781 255 127.664062 C 255 57.519531 197.914062 0.660156 127.5 0.660156 Z M 127.5 238.359375 C 107.46875 238.359375 91.222656 225.027344 91.222656 208.585938 L 163.777344 208.585938 C 163.777344 225.023438 147.535156 238.359375 127.5 238.359375 Z M 187.417969 198.726562 L 67.578125 198.726562 L 67.578125 177.082031 L 187.421875 177.082031 L 187.421875 198.726562 Z M 186.988281 165.941406 L 67.917969 165.941406 C 67.523438 165.484375 67.117188 165.039062 66.734375 164.574219 C 54.46875 149.738281 51.578125 141.992188 48.773438 134.097656 C 48.726562 133.839844 63.648438 137.136719 74.230469 139.507812 C 74.230469 139.507812 79.675781 140.761719 87.636719 142.207031 C 79.992188 133.285156 75.453125 121.9375 75.453125 110.34375 C 75.453125 84.882812 95.054688 62.636719 87.984375 44.65625 C 94.867188 45.214844 102.230469 59.125 102.726562 80.875 C 110.042969 70.804688 113.105469 52.410156 113.105469 41.132812 C 113.105469 29.457031 120.828125 15.890625 128.554688 15.425781 C 121.667969 26.734375 130.339844 36.425781 138.050781 60.472656 C 140.941406 69.507812 140.570312 84.707031 142.804688 94.347656 C 143.542969 74.324219 147 45.113281 159.75 35.027344 C 154.125 47.726562 160.582031 63.621094 165 71.261719 C 172.125 83.589844 176.445312 92.925781 176.445312 110.589844 C 176.445312 122.433594 172.054688 133.582031 164.652344 142.300781 C 173.070312 140.726562 178.882812 139.308594 178.882812 139.308594 L 206.226562 133.992188 C 206.230469 133.992188 202.253906 150.269531 186.988281 165.941406 Z M 186.988281 165.941406 "/>
</g>
</svg>
